<svg width="90" height="88" viewBox="0 0 90 88" fill="none" xmlns="http://www.w3.org/2000/svg">
<ellipse cx="45.2609" cy="44" rx="44.4418" ry="44" fill="#E9E9EC"/>
<path fill-rule="evenodd" clip-rule="evenodd" d="M25.5808 31.9121C22.5867 35.9314 20.818 40.9001 20.818 46.2802C20.818 51.6603 22.5867 56.6289 25.5808 60.6482C28.2979 59.6566 31.324 58.8654 34.5738 58.3168C34.9574 58.2535 35.341 58.1902 35.7245 58.1375C34.9787 54.5929 34.5631 50.5631 34.5631 46.2907C34.5631 44.318 34.6484 42.398 34.8189 40.5519L33.9984 41.8706L28.1807 32.7877C27.2857 32.524 26.4119 32.2286 25.5808 31.9227V31.9121Z" fill="#0B7572"/>
<path fill-rule="evenodd" clip-rule="evenodd" d="M34.8405 59.8889C31.889 60.3847 29.1293 61.0915 26.6467 61.9671C27.286 62.7161 27.9679 63.4229 28.7031 64.077C32.0915 67.1679 36.3535 69.3199 41.0844 70.1217C39.7206 68.7608 38.5059 66.7565 37.5149 64.2457C36.9715 62.8743 36.4921 61.3447 36.0765 59.6885C35.661 59.7518 35.2454 59.8151 34.8405 59.8889Z" fill="#0B7572"/>
<path fill-rule="evenodd" clip-rule="evenodd" d="M37.7061 59.4775C38.0897 60.9966 38.5372 62.3996 39.038 63.6655C40.7002 67.8747 42.9058 70.4803 45.2712 70.4803C47.6367 70.4803 49.8423 67.8747 51.5045 63.6655C52.0053 62.3996 52.4528 60.9966 52.8364 59.4775C50.4177 59.1927 47.8818 59.0344 45.2819 59.0344C42.6714 59.0344 40.1461 59.1821 37.7274 59.4775H37.7061Z" fill="#0B7572"/>
<path fill-rule="evenodd" clip-rule="evenodd" d="M36.1932 46.2703C36.1932 50.4794 36.6088 54.4459 37.344 57.8955C39.8906 57.5896 42.5437 57.4208 45.2714 57.4208C47.9991 57.4208 50.6523 57.5896 53.1988 57.8955C53.9341 54.4354 54.3496 50.4794 54.3496 46.2703C54.3496 42.0611 53.9341 38.0946 53.1988 34.645C50.6523 34.9509 47.9991 35.1197 45.2714 35.1197C42.9166 35.1197 40.6151 34.9931 38.3989 34.7611L37.4079 36.354L36.8645 37.2296C36.4277 40.0251 36.1932 43.0739 36.1932 46.2808V46.2703Z" fill="#0B7572"/>
<path fill-rule="evenodd" clip-rule="evenodd" d="M39.3364 33.2417C41.2543 33.4211 43.2362 33.5055 45.2607 33.5055C47.8712 33.5055 50.3964 33.3578 52.8152 33.0624C52.4316 31.5433 51.9841 30.1403 51.4833 28.8744C49.8211 24.6652 47.6155 22.0596 45.25 22.0596C44.5468 22.0596 43.8542 22.2917 43.1829 22.7347C43.2149 22.9352 43.2362 23.1461 43.2468 23.3571C43.2468 23.3677 43.2468 23.3888 43.2468 23.3993C43.2468 23.4204 43.2468 23.4521 43.2575 23.4732C43.2682 23.5787 43.2788 23.6842 43.2788 23.7896C43.2788 23.8002 43.2788 23.8002 43.2788 23.8213C43.2788 23.9479 43.2788 24.0639 43.2788 24.1905C43.2788 26.0472 42.501 28.0937 41.5207 29.6656L39.3151 33.2312L39.3364 33.2417Z" fill="#0B7572"/>
<path fill-rule="evenodd" clip-rule="evenodd" d="M53.0073 28.2939C53.5507 29.6653 54.0302 31.195 54.4458 32.8512C54.8613 32.7879 55.2769 32.7246 55.6818 32.6508C58.6333 32.155 61.3929 31.4482 63.8756 30.5726C63.2363 29.8236 62.5437 29.1168 61.8191 28.4522C58.4415 25.3718 54.1687 23.2198 49.4485 22.4075C50.8124 23.7683 52.0271 25.7727 53.018 28.2834L53.0073 28.2939Z" fill="#0B7572"/>
<path fill-rule="evenodd" clip-rule="evenodd" d="M54.7976 34.4232C55.5435 37.9677 55.959 41.9975 55.959 46.27C55.959 50.5424 55.5435 54.5722 54.7976 58.1167C55.1812 58.1695 55.5648 58.2328 55.9484 58.2961C59.1982 58.8446 62.2243 59.6358 64.9413 60.6275C67.9354 56.6082 69.7042 51.6395 69.7042 46.2594C69.7042 40.8793 67.9354 35.9106 64.9413 31.8914C62.2243 32.883 59.1982 33.6742 55.9484 34.2227C55.5648 34.286 55.1812 34.3493 54.7976 34.4021V34.4232Z" fill="#0B7572"/>
<path fill-rule="evenodd" clip-rule="evenodd" d="M54.4458 59.699C54.0409 61.3553 53.5508 62.8849 53.0074 64.2563C52.0165 66.7565 50.8124 68.7714 49.4379 70.1322C54.1688 69.3199 58.4309 67.1784 61.8085 64.0875C62.5331 63.4229 63.2257 62.7161 63.865 61.9671C61.3823 61.0915 58.6227 60.3953 55.6712 59.8889C55.2663 59.8151 54.8507 59.7518 54.4352 59.6885L54.4458 59.699Z" fill="#0B7572"/>
<path fill-rule="evenodd" clip-rule="evenodd" d="M36.4489 25.4141C35.7883 26.0681 34.8719 26.4796 33.8597 26.4796C32.8474 26.4796 31.9311 26.0787 31.2705 25.4141C30.6099 24.76 30.1943 23.8528 30.1943 22.8506C30.1943 21.8485 30.5992 20.9412 31.2705 20.2872C31.9311 19.6331 32.8474 19.2217 33.8597 19.2217C34.8719 19.2217 35.7883 19.6226 36.4489 20.2872C37.1095 20.9412 37.5251 21.8485 37.5251 22.8506C37.5251 23.8528 37.1202 24.76 36.4489 25.4141ZM36.0866 35.4148C36.0653 35.4464 36.044 35.4781 36.0227 35.5097L36.0866 35.4148ZM41.6486 23.5047C41.6486 23.5152 41.6486 23.5258 41.6486 23.5258C41.6486 23.5152 41.6486 23.5047 41.6486 23.5047ZM28.351 18.7364C26.9338 20.1395 26.0601 22.07 26.0601 24.2009C26.0601 25.4985 26.774 27.3024 27.8182 29.254C27.8289 29.2646 27.8395 29.2751 27.8608 29.2857C27.9141 29.3384 27.9674 29.4017 27.9994 29.465L28.7026 30.5621C28.7133 30.5727 28.7133 30.5832 28.7239 30.5938L33.9982 38.8222L35.1276 37.0077C35.149 36.976 35.1703 36.9339 35.1916 36.9022L36.044 35.5308L36.1079 35.4253L40.1888 28.8426C41.0945 27.0387 41.7019 25.4035 41.7019 24.2115C41.7019 24.0743 41.7019 23.9794 41.7019 23.9056C41.7019 23.895 41.7019 23.8845 41.7019 23.8845C41.7019 23.8212 41.6912 23.7368 41.6806 23.6313C41.6806 23.6102 41.6806 23.5891 41.6699 23.5574C41.6699 23.5469 41.6699 23.5363 41.6699 23.5363C41.4994 21.6797 40.6683 20.0129 39.411 18.7681C37.9939 17.365 36.044 16.5 33.8917 16.5C31.7393 16.5 29.7894 17.365 28.3723 18.7681L28.351 18.7364Z" fill="#0B7572"/>
</svg>
