<svg width="52" height="52" viewBox="0 0 52 52" fill="none" xmlns="http://www.w3.org/2000/svg">
<circle cx="26" cy="26" r="26" fill="#E9E9EC"/>
<path fill-rule="evenodd" clip-rule="evenodd" d="M39.1421 18.0964H12.8632C12.5459 18.0964 12.2521 18.2257 12.0405 18.4373C11.829 18.6488 11.6997 18.9367 11.6997 19.2599V38.0289C11.6997 38.3462 11.829 38.64 12.0405 38.8516C12.2521 39.0631 12.54 39.1924 12.8632 39.1924H39.1421C39.4594 39.1924 39.7532 39.0631 39.9589 38.8516C40.1704 38.64 40.2997 38.3521 40.2997 38.0289V19.2599C40.2997 18.9426 40.1704 18.6488 39.9589 18.4373C39.7473 18.2257 39.4594 18.0964 39.1421 18.0964ZM26.5491 30.3015V36.3306C26.5491 36.6303 26.3023 36.8771 26.0026 36.8771C25.703 36.8771 25.4561 36.6303 25.4561 36.3306V30.3015C24.8979 30.0841 24.5042 29.5435 24.5042 28.9088C24.5042 28.0803 25.1741 27.4104 26.0026 27.4104C26.8312 27.4104 27.5011 28.0803 27.5011 28.9088C27.5011 29.5435 27.1074 30.0841 26.5491 30.3015Z" fill="#0B7572"/>
<path fill-rule="evenodd" clip-rule="evenodd" d="M37.6676 20.4118C37.5736 17.3326 36.2866 14.5531 34.2534 12.5199C32.1438 10.4103 29.2233 9.09985 26.0031 9.09985C22.7829 9.09985 19.8624 10.4044 17.7528 12.5199C15.7196 14.5531 14.4326 17.3326 14.3386 20.4118H37.6676ZM35.1936 18.2669C34.7647 16.6803 33.9244 15.223 32.7374 14.0418C30.9451 12.2496 28.5417 11.2506 26.0031 11.2506C23.4645 11.2506 21.0611 12.2496 19.2688 14.0418C18.0818 15.2288 17.2415 16.6803 16.8125 18.2669H35.1936Z" fill="#0B7572"/>
</svg>
