<svg width="92" height="88" viewBox="0 0 92 88" fill="none" xmlns="http://www.w3.org/2000/svg">
<ellipse cx="46.2842" cy="44" rx="45.465" ry="44" fill="#E9E9EC"/>
<path fill-rule="evenodd" clip-rule="evenodd" d="M30.5621 56.9199H38.4076C38.924 56.9199 39.3416 57.324 39.3416 57.8238V65.4165C39.3416 65.9163 38.924 66.3204 38.4076 66.3204H30.5621C30.0457 66.3204 29.6281 65.9163 29.6281 65.4165V57.8238C29.6281 57.324 30.0457 56.9199 30.5621 56.9199ZM61.7573 46.3178H47.3739C46.8574 46.3178 46.4399 45.9137 46.4399 45.4139C46.4399 44.9141 46.8574 44.51 47.3739 44.51H61.7573C62.2737 44.51 62.6913 44.9141 62.6913 45.4139C62.6913 45.9137 62.2737 46.3178 61.7573 46.3178ZM39.924 27.9209L32.5839 35.0245C32.529 35.0883 32.4521 35.1414 32.3751 35.184C31.9246 35.4286 31.3642 35.2903 31.1005 34.8543L28.8809 31.1324C28.6282 30.7071 28.771 30.1541 29.2216 29.8989C29.6611 29.6543 30.2325 29.7925 30.4962 30.2285L32.1114 32.9402L38.6054 26.6555C38.968 26.3046 39.5613 26.3046 39.924 26.6555C40.2866 27.0064 40.2866 27.5806 39.924 27.9316V27.9209ZM35.1331 16.5H24.4857C23.9692 16.5 23.5517 16.9041 23.5517 17.4039V70.0423C23.5517 70.5421 23.9692 70.9462 24.4857 70.9462H66.9656C67.4821 70.9462 67.8996 70.5421 67.8996 70.0423V17.4039C67.8996 16.9041 67.4821 16.5 66.9656 16.5H56.3182V21.4236C56.3182 21.9234 55.9006 22.3274 55.3842 22.3274H36.0671C35.5507 22.3274 35.1331 21.9234 35.1331 21.4236V16.5ZM46.4399 61.6201C46.4399 61.1203 46.8574 60.7163 47.3739 60.7163H61.7573C62.2737 60.7163 62.6913 61.1203 62.6913 61.6201C62.6913 62.1199 62.2737 62.524 61.7573 62.524H47.3739C46.8574 62.524 46.4399 62.1199 46.4399 61.6201ZM39.924 42.5002L32.5839 49.6037C32.529 49.6675 32.4521 49.7207 32.3751 49.7632C31.9246 50.0078 31.3642 49.8696 31.1005 49.4336L28.8809 45.7117C28.6282 45.2863 28.771 44.7333 29.2216 44.4781C29.6611 44.2335 30.2325 44.3718 30.4962 44.8078L32.1114 47.5194L38.6054 41.2347C38.968 40.8838 39.5613 40.8838 39.924 41.2347C40.2866 41.5857 40.2866 42.1599 39.924 42.5108V42.5002ZM47.3739 31.7386C46.8574 31.7386 46.4399 31.3345 46.4399 30.8347C46.4399 30.3349 46.8574 29.9308 47.3739 29.9308H61.7573C62.2737 29.9308 62.6913 30.3349 62.6913 30.8347C62.6913 31.3345 62.2737 31.7386 61.7573 31.7386H47.3739Z" fill="#0B7572"/>
<path fill-rule="evenodd" clip-rule="evenodd" d="M55.3841 16.532H36.067V21.4236H55.3841V16.532Z" fill="#0B7572"/>
</svg>
