<svg width="52" height="52" viewBox="0 0 52 52" fill="none" xmlns="http://www.w3.org/2000/svg">
<circle cx="26" cy="26" r="26" fill="#E9E9EC"/>
<path fill-rule="evenodd" clip-rule="evenodd" d="M14.4861 18.8572C12.7345 21.2322 11.6997 24.1682 11.6997 27.3474C11.6997 30.5265 12.7345 33.4626 14.4861 35.8376C16.0757 35.2516 17.8461 34.7841 19.7473 34.46C19.9717 34.4226 20.1962 34.3852 20.4206 34.354C19.9842 32.2595 19.7411 29.8782 19.7411 27.3536C19.7411 26.1879 19.791 25.0534 19.8907 23.9625L19.4107 24.7417L16.0071 19.3746C15.4835 19.2187 14.9724 19.0442 14.4861 18.8634V18.8572Z" fill="#0B7572"/>
<path fill-rule="evenodd" clip-rule="evenodd" d="M19.9026 35.3889C18.1758 35.6819 16.5613 36.0996 15.1089 36.617C15.4829 37.0596 15.8819 37.4772 16.312 37.8637C18.2943 39.6902 20.7877 40.9618 23.5555 41.4356C22.7576 40.6314 22.0469 39.447 21.4672 37.9634C21.1493 37.1531 20.8688 36.2492 20.6257 35.2705C20.3825 35.3079 20.1394 35.3453 19.9026 35.3889Z" fill="#0B7572"/>
<path fill-rule="evenodd" clip-rule="evenodd" d="M21.5801 35.1458C21.8045 36.0435 22.0663 36.8726 22.3593 37.6206C23.3317 40.1078 24.6221 41.6475 26.006 41.6475C27.3898 41.6475 28.6802 40.1078 29.6526 37.6206C29.9456 36.8726 30.2074 36.0435 30.4318 35.1458C29.0168 34.9775 27.5332 34.884 26.0122 34.884C24.485 34.884 23.0076 34.9713 21.5925 35.1458H21.5801Z" fill="#0B7572"/>
<path fill-rule="evenodd" clip-rule="evenodd" d="M20.6948 27.3414C20.6948 29.8286 20.9379 32.1725 21.3681 34.2109C22.8579 34.0301 24.4101 33.9303 26.0059 33.9303C27.6017 33.9303 29.1539 34.0301 30.6437 34.2109C31.0738 32.1662 31.3169 29.8286 31.3169 27.3414C31.3169 24.8542 31.0738 22.5103 30.6437 20.4719C29.1539 20.6527 27.6017 20.7524 26.0059 20.7524C24.6282 20.7524 23.2818 20.6776 21.9852 20.5405L21.4055 21.4818L21.0875 21.9992C20.832 23.6511 20.6948 25.4526 20.6948 27.3476V27.3414Z" fill="#0B7572"/>
<path fill-rule="evenodd" clip-rule="evenodd" d="M22.5337 19.6428C23.6558 19.7488 24.8152 19.7986 25.9996 19.7986C27.5268 19.7986 29.0042 19.7114 30.4193 19.5368C30.1948 18.6392 29.933 17.8101 29.6401 17.0621C28.6676 14.5749 27.3772 13.0352 25.9934 13.0352C25.582 13.0352 25.1768 13.1723 24.784 13.4341C24.8028 13.5525 24.8152 13.6772 24.8215 13.8019C24.8215 13.8081 24.8215 13.8206 24.8215 13.8268C24.8215 13.8393 24.8215 13.858 24.8277 13.8705C24.8339 13.9328 24.8402 13.9951 24.8402 14.0575C24.8402 14.0637 24.8402 14.0637 24.8402 14.0762C24.8402 14.151 24.8402 14.2195 24.8402 14.2944C24.8402 15.3915 24.3851 16.6008 23.8116 17.5296L22.5212 19.6366L22.5337 19.6428Z" fill="#0B7572"/>
<path fill-rule="evenodd" clip-rule="evenodd" d="M30.531 16.7191C30.8489 17.5295 31.1294 18.4333 31.3725 19.412C31.6157 19.3746 31.8588 19.3372 32.0957 19.2936C33.8224 19.0006 35.4369 18.5829 36.8893 18.0656C36.5153 17.623 36.1101 17.2053 35.6862 16.8126C33.7102 14.9924 31.2105 13.7207 28.449 13.2407C29.2469 14.0449 29.9575 15.2293 30.5372 16.7129L30.531 16.7191Z" fill="#0B7572"/>
<path fill-rule="evenodd" clip-rule="evenodd" d="M31.5789 20.341C32.0152 22.4355 32.2583 24.8168 32.2583 27.3414C32.2583 29.866 32.0152 32.2473 31.5789 34.3418C31.8033 34.373 32.0277 34.4104 32.2521 34.4478C34.1533 34.7719 35.9237 35.2394 37.5133 35.8254C39.2649 33.4504 40.2997 30.5143 40.2997 27.3352C40.2997 24.156 39.2649 21.22 37.5133 18.845C35.9237 19.4309 34.1533 19.8985 32.2521 20.2226C32.0277 20.26 31.8033 20.2974 31.5789 20.3286V20.341Z" fill="#0B7572"/>
<path fill-rule="evenodd" clip-rule="evenodd" d="M31.3739 35.2767C31.137 36.2554 30.8503 37.1593 30.5324 37.9697C29.9526 39.447 29.2482 40.6377 28.4441 41.4418C31.2118 40.9618 33.7053 39.6964 35.6813 37.8699C36.1052 37.4772 36.5104 37.0596 36.8844 36.617C35.432 36.0996 33.8175 35.6882 32.0908 35.3889C31.8539 35.3453 31.6108 35.3079 31.3677 35.2705L31.3739 35.2767Z" fill="#0B7572"/>
<path fill-rule="evenodd" clip-rule="evenodd" d="M20.8446 15.0174C20.4582 15.4039 19.9221 15.647 19.3299 15.647C18.7377 15.647 18.2016 15.4101 17.8151 15.0174C17.4286 14.6309 17.1855 14.0948 17.1855 13.5026C17.1855 12.9105 17.4224 12.3744 17.8151 11.9879C18.2016 11.6014 18.7377 11.3583 19.3299 11.3583C19.9221 11.3583 20.4582 11.5952 20.8446 11.9879C21.2311 12.3744 21.4742 12.9105 21.4742 13.5026C21.4742 14.0948 21.2374 14.6309 20.8446 15.0174ZM20.6327 20.9269C20.6202 20.9456 20.6078 20.9643 20.5953 20.983L20.6327 20.9269ZM23.8867 13.8891C23.8867 13.8954 23.8867 13.9016 23.8867 13.9016C23.8867 13.8954 23.8867 13.8891 23.8867 13.8891ZM16.1071 11.0715C15.278 11.9006 14.7668 13.0414 14.7668 14.3006C14.7668 15.0673 15.1845 16.1332 15.7954 17.2865C15.8016 17.2927 15.8079 17.2989 15.8203 17.3052C15.8515 17.3363 15.8827 17.3737 15.9014 17.4111L16.3128 18.0594C16.319 18.0657 16.319 18.0719 16.3253 18.0781L19.4109 22.9404L20.0717 21.8682C20.0841 21.8495 20.0966 21.8245 20.1091 21.8058L20.6078 20.9955L20.6452 20.9331L23.0326 17.0434C23.5625 15.9774 23.9178 15.0112 23.9178 14.3068C23.9178 14.2257 23.9178 14.1696 23.9178 14.126C23.9178 14.1198 23.9178 14.1135 23.9178 14.1135C23.9178 14.0761 23.9116 14.0263 23.9054 13.9639C23.9054 13.9515 23.9054 13.939 23.8991 13.9203C23.8991 13.9141 23.8991 13.9078 23.8991 13.9078C23.7994 12.8107 23.3132 11.8258 22.5776 11.0902C21.7485 10.2612 20.6078 9.75 19.3486 9.75C18.0894 9.75 16.9486 10.2612 16.1195 11.0902L16.1071 11.0715Z" fill="#0B7572"/>
</svg>
