<svg width="92" height="88" viewBox="0 0 92 88" fill="none" xmlns="http://www.w3.org/2000/svg">
<ellipse cx="46.2842" cy="44" rx="45.465" ry="44" fill="#E9E9EC"/>
<path fill-rule="evenodd" clip-rule="evenodd" d="M32.1208 30.293C35.7447 26.7859 40.7556 24.6117 46.2842 24.6117C51.8129 24.6117 56.8238 26.7859 60.4477 30.293C64.0715 33.8001 66.3182 38.6496 66.3182 44C66.3182 49.3505 64.0715 54.2 60.4477 57.7071C56.8238 61.2142 51.8129 63.3884 46.2842 63.3884C40.7556 63.3884 35.7447 61.2142 32.1208 57.7071C28.4969 54.2 26.2503 49.3505 26.2503 44C26.2503 38.6496 28.4969 33.8001 32.1208 30.293ZM71.29 44C71.29 37.3167 68.4866 31.2667 63.9641 26.8899C59.4416 22.5131 53.1901 19.8 46.2842 19.8C39.3784 19.8 33.1269 22.5131 28.6044 26.8899C24.0819 31.2667 21.2785 37.3167 21.2785 44C21.2785 50.6834 24.0819 56.7334 28.6044 61.1102C33.1269 65.487 39.3784 68.2001 46.2842 68.2001C53.1901 68.2001 59.4416 65.487 63.9641 61.1102C68.4866 56.7334 71.29 50.6834 71.29 44Z" fill="#0B7572"/>
<path fill-rule="evenodd" clip-rule="evenodd" d="M40.5015 38.4887C40.5015 36.7683 41.1266 35.3787 42.3867 34.3199C43.2267 33.6015 44.477 33.1666 46.1278 33.0059V31.8526H47.6027V33.0059C49.0484 33.1383 50.201 33.5542 51.0508 34.2348C52.1448 35.1045 52.7993 36.3145 53.0141 37.8459L50.4354 38.224C50.2889 37.2787 49.9861 36.5508 49.5173 36.0498C49.0582 35.5488 48.4135 35.2085 47.6027 35.0478V42.0053C48.853 42.3078 49.6931 42.5536 50.0936 42.7237C50.8652 43.0546 51.5001 43.4516 51.9885 43.9243C52.4769 44.3969 52.8579 44.9641 53.1216 45.6164C53.3853 46.2687 53.5221 46.9776 53.5221 47.7339C53.5221 49.4071 52.9653 50.7967 51.8713 51.9216C50.7773 53.0465 49.3512 53.6421 47.6027 53.7177V56.1566H46.1278V53.7461C44.8775 53.5948 43.8714 53.3207 43.09 52.9331C42.3086 52.5455 41.6346 51.9122 41.068 51.0519C40.5015 50.1822 40.1694 49.1235 40.0815 47.8757L42.5918 47.4219C42.7872 48.717 43.1291 49.6718 43.6175 50.2768C44.3207 51.137 45.1608 51.6097 46.1376 51.7137V44.0377C45.1119 43.8487 44.0668 43.4611 42.9923 42.8844C42.2011 42.4496 41.5857 41.8635 41.1559 41.0978C40.7262 40.3415 40.5113 39.4813 40.5113 38.5076L40.5015 38.4887ZM64.6477 43.9999C64.6477 39.0937 62.5964 34.6508 59.2656 31.4367C55.9445 28.2226 51.3536 26.228 46.2841 26.228C41.2146 26.228 36.6237 28.2132 33.3026 31.4367C29.9815 34.6508 27.9205 39.0937 27.9205 43.9999C27.9205 48.9061 29.9717 53.349 33.3026 56.5631C36.6237 59.7772 41.2146 61.7718 46.2841 61.7718C51.3536 61.7718 55.9445 59.7866 59.2656 56.5631C62.5867 53.349 64.6477 48.9061 64.6477 43.9999Z" fill="#0B7572"/>
<path fill-rule="evenodd" clip-rule="evenodd" d="M46.128 41.6934V35.0195C45.161 35.1613 44.3894 35.5395 43.8326 36.1445C43.2758 36.7495 42.9926 37.4679 42.9926 38.3092C42.9926 39.1316 43.227 39.8217 43.7056 40.37C44.1842 40.9277 44.9852 41.372 46.1183 41.6934H46.128Z" fill="#0B7572"/>
<path fill-rule="evenodd" clip-rule="evenodd" d="M50.9435 47.8851C50.9435 47.0154 50.7189 46.3064 50.2695 45.777C49.8202 45.2477 48.9216 44.7655 47.5834 44.3496V51.6947C48.5504 51.5813 49.3514 51.1748 49.9863 50.4752C50.6212 49.7757 50.9338 48.9155 50.9338 47.8851H50.9435Z" fill="#0B7572"/>
</svg>
