<svg width="52" height="52" viewBox="0 0 52 52" fill="none" xmlns="http://www.w3.org/2000/svg">
<circle cx="26" cy="26" r="26" fill="#E9E9EC"/>
<path fill-rule="evenodd" clip-rule="evenodd" d="M17.9003 17.9006C19.9727 15.8282 22.8383 14.5434 26 14.5434C29.1616 14.5434 32.0272 15.8282 34.0996 17.9006C36.1719 19.973 37.4567 22.8386 37.4567 26.0002C37.4567 29.1618 36.1719 32.0274 34.0996 34.0998C32.0272 36.1722 29.1616 37.457 26 37.457C22.8383 37.457 19.9727 36.1722 17.9003 34.0998C15.828 32.0274 14.5432 29.1618 14.5432 26.0002C14.5432 22.8386 15.828 19.973 17.9003 17.9006ZM40.3 26.0002C40.3 22.0509 38.6968 18.4759 36.1105 15.8896C33.5242 13.3034 29.9492 11.7002 26 11.7002C22.0507 11.7002 18.4757 13.3034 15.8894 15.8896C13.3031 18.4759 11.7 22.0509 11.7 26.0002C11.7 29.9495 13.3031 33.5245 15.8894 36.1107C18.4757 38.697 22.0507 40.3002 26 40.3002C29.9492 40.3002 33.5242 38.697 36.1105 36.1107C38.6968 33.5245 40.3 29.9495 40.3 26.0002Z" fill="#0B7572"/>
<path fill-rule="evenodd" clip-rule="evenodd" d="M22.694 22.7433C22.694 21.7266 23.0515 20.9055 23.772 20.2799C24.2524 19.8553 24.9674 19.5984 25.9115 19.5034V18.8219H26.7549V19.5034C27.5816 19.5816 28.2408 19.8274 28.7268 20.2296C29.3524 20.7435 29.7267 21.4585 29.8495 22.3634L28.3749 22.5868C28.2911 22.0283 28.1179 21.5981 27.8498 21.3021C27.5872 21.006 27.2186 20.8049 26.7549 20.71V24.8212C27.4699 25 27.9503 25.1452 28.1793 25.2458C28.6206 25.4413 28.9837 25.6759 29.263 25.9552C29.5423 26.2345 29.7602 26.5696 29.911 26.955C30.0618 27.3405 30.14 27.7594 30.14 28.2063C30.14 29.195 29.8216 30.0161 29.196 30.6809C28.5704 31.3456 27.7548 31.6975 26.7549 31.7422V33.1834H25.9115V31.759C25.1965 31.6696 24.6211 31.5076 24.1742 31.2786C23.7274 31.0495 23.3419 30.6753 23.0179 30.167C22.694 29.6531 22.504 29.0274 22.4538 28.2901L23.8893 28.022C24.0011 28.7872 24.1966 29.3514 24.4759 29.7089C24.8781 30.2172 25.3584 30.4965 25.917 30.558V26.0222C25.3305 25.9105 24.7328 25.6815 24.1184 25.3407C23.6659 25.0838 23.314 24.7374 23.0682 24.285C22.8224 23.8381 22.6995 23.3298 22.6995 22.7544L22.694 22.7433ZM36.5024 25.9999C36.5024 23.1008 35.3293 20.4754 33.4245 18.5761C31.5253 16.6769 28.8999 15.4983 26.0008 15.4983C23.1017 15.4983 20.4763 16.6713 18.5771 18.5761C16.6779 20.4754 15.4993 23.1008 15.4993 25.9999C15.4993 28.899 16.6723 31.5243 18.5771 33.4236C20.4763 35.3228 23.1017 36.5014 26.0008 36.5014C28.8999 36.5014 31.5253 35.3284 33.4245 33.4236C35.3238 31.5243 36.5024 28.899 36.5024 25.9999Z" fill="#0B7572"/>
<path fill-rule="evenodd" clip-rule="evenodd" d="M25.9115 24.637V20.6934C25.3585 20.7771 24.9172 21.0006 24.5988 21.3581C24.2804 21.7156 24.1184 22.1401 24.1184 22.6373C24.1184 23.1232 24.2525 23.531 24.5262 23.855C24.7999 24.1846 25.2579 24.4471 25.9059 24.637H25.9115Z" fill="#0B7572"/>
<path fill-rule="evenodd" clip-rule="evenodd" d="M28.6655 28.2957C28.6655 27.7818 28.537 27.3628 28.28 27.05C28.0231 26.7372 27.5092 26.4523 26.7439 26.2065V30.5468C27.2969 30.4798 27.755 30.2396 28.118 29.8262C28.4811 29.4129 28.6599 28.9046 28.6599 28.2957H28.6655Z" fill="#0B7572"/>
</svg>
