<svg width="90" height="88" viewBox="0 0 90 88" fill="none" xmlns="http://www.w3.org/2000/svg">
<ellipse cx="44.6244" cy="44" rx="44.6244" ry="44" fill="#E9E9EC"/>
<path fill-rule="evenodd" clip-rule="evenodd" d="M67.181 30.625H22.078C21.5334 30.625 21.0291 30.8438 20.666 31.2018C20.3029 31.5598 20.081 32.0471 20.081 32.594V64.3568C20.081 64.8938 20.3029 65.3911 20.666 65.7491C21.0291 66.1071 21.5233 66.3258 22.078 66.3258H67.181C67.7256 66.3258 68.2299 66.1071 68.5829 65.7491C68.946 65.3911 69.1679 64.9038 69.1679 64.3568V32.594C69.1679 32.057 68.946 31.5598 68.5829 31.2018C68.2198 30.8438 67.7256 30.625 67.181 30.625ZM45.5675 51.2798V61.4829C45.5675 61.99 45.1439 62.4077 44.6295 62.4077C44.1151 62.4077 43.6915 61.99 43.6915 61.4829V51.2798C42.7334 50.9118 42.0577 49.9969 42.0577 48.9229C42.0577 47.5207 43.2074 46.3871 44.6295 46.3871C46.0516 46.3871 47.2013 47.5207 47.2013 48.9229C47.2013 49.9969 46.5256 50.9118 45.5675 51.2798Z" fill="#0B7572"/>
<path fill-rule="evenodd" clip-rule="evenodd" d="M64.6493 34.5431C64.488 29.3322 62.2792 24.6284 58.7896 21.1876C55.1688 17.6175 50.1563 15.3999 44.6293 15.3999C39.1024 15.3999 34.0898 17.6076 30.4691 21.1876C26.9794 24.6284 24.7707 29.3322 24.6093 34.5431H64.6493ZM60.4033 30.9134C59.667 28.2283 58.2248 25.7621 56.1875 23.7632C53.1114 20.7302 48.9863 19.0396 44.6293 19.0396C40.2723 19.0396 36.1473 20.7302 33.0712 23.7632C31.0339 25.772 29.5916 28.2283 28.8554 30.9134H60.4033Z" fill="#0B7572"/>
</svg>
