<svg width="32" height="20" viewBox="0 0 32 20" fill="none" xmlns="http://www.w3.org/2000/svg">
<path d="M2.34146 0C1.88121 0 1.45877 0.136269 1.09756 0.360577L14.9512 11.9111C15.5854 12.4404 16.4401 12.4404 17.0732 11.9111L30.9024 0.360577C30.5412 0.136269 30.1188 0 29.6585 0H2.34146ZM0.134166 1.55046C0.0506535 1.78815 0 2.04135 0 2.30769V17.6923C0 18.1557 0.141307 18.5815 0.378068 18.9423L10.2927 10.0361L0.134166 1.55046ZM31.8658 1.55046L21.7317 10.024L31.6219 18.9423C31.8587 18.5815 32 18.1557 32 17.6923V2.30769C32 2.04135 31.9493 1.78815 31.8658 1.55046ZM20.5366 11.0337L18.0732 13.0889C16.8818 14.0851 15.1306 14.0837 13.939 13.0889L11.4878 11.0457L1.64636 19.8919C1.86658 19.9591 2.09826 20 2.34146 20H29.6585C29.9017 20 30.1334 19.9591 30.3536 19.8919L20.5366 11.0337Z" fill="#0B7572"/>
</svg>
