<svg width="119" height="57" viewBox="0 0 119 57" fill="none" xmlns="http://www.w3.org/2000/svg">
<path d="M36.52 37.1655H44.0241V39.6174H40.4543V56.8451H36.52V37.1655Z" fill="#0079C2"/>
<path d="M48.4734 49.4572L49.1476 39.6174H49.3735L50.0477 49.4572H48.4734ZM44.1165 56.8451H47.9685L48.333 51.6187H50.1881L50.5543 56.8451H54.4047L52.3528 37.1655H46.1683L44.1165 56.8451Z" fill="#0079C2"/>
<path d="M60.0389 49.9573V53.6674C60.0389 54.1674 60.4261 54.3126 60.6519 54.3126C61.0229 54.3126 61.281 54.0061 61.281 53.6674V49.0862C61.281 48.4732 61.1681 47.7957 59.7002 47.7957H58.1032V45.6342H59.7647C60.8777 45.6342 61.281 45.3761 61.281 44.1663V40.2626C61.281 39.9239 61.0229 39.6174 60.6519 39.6174C60.4261 39.6174 60.0389 39.7465 60.0389 40.2626V43.4727H56.103V40.682C56.103 39.3109 56.2643 37.1655 59.0227 37.1655H62.2811C65.0395 37.1655 65.2169 39.3109 65.2169 40.682V43.8276C65.2169 45.9729 63.7168 46.5537 62.5392 46.5053V46.6988C65.1847 46.6343 65.2169 48.6668 65.2169 49.3604V53.3286C65.2169 54.7159 65.0395 56.8451 62.2811 56.8451H59.0227C56.2643 56.8451 56.103 54.7159 56.103 53.3286V49.9573H60.0389Z" fill="#0079C2"/>
<path d="M67.7981 37.1655H76.912V56.8451H72.9761V39.6174H71.734V56.8451H67.7981V37.1655Z" fill="#0079C2"/>
<path d="M83.4286 47.9893V39.6174H83.9448C84.3642 39.6174 84.6707 39.9723 84.6707 40.6014V47.0053C84.6707 47.6344 84.3642 47.9893 83.9448 47.9893H83.4286ZM79.4927 56.8451H83.4286V50.1508H85.6869C88.4291 50.1508 88.6066 48.0216 88.6066 46.6343V40.682C88.6066 39.3109 88.4291 37.1655 85.6869 37.1655H79.4927V56.8451Z" fill="#0079C2"/>
<path d="M96.3655 53.6674C96.3655 54.0061 96.1074 54.3126 95.7364 54.3126C95.5106 54.3126 95.1234 54.1674 95.1234 53.6674V40.2626C95.1234 39.7465 95.5106 39.6174 95.7364 39.6174C96.1074 39.6174 96.3655 39.9239 96.3655 40.2626V53.6674ZM91.1875 53.3286C91.1875 54.7159 91.3649 56.8451 94.1072 56.8451H97.3817C100.124 56.8451 100.301 54.7159 100.301 53.3286V40.682C100.301 39.3109 100.124 37.1655 97.3817 37.1655H94.1072C91.3649 37.1655 91.1875 39.3109 91.1875 40.682V53.3286Z" fill="#0079C2"/>
<path d="M113.109 37.1655H118.239V56.8451H114.303V44.5051H114.158L112.125 56.8451H108.98L106.963 44.5051H106.818V56.8451H102.882V37.1655H107.996L110.56 51.0058L113.109 37.1655Z" fill="#0079C2"/>
<path d="M31.4197 10.2592C30.2148 4.98442 27.1951 0.693625 26.7789 0C26.1208 0.98398 23.7124 4.77472 22.4881 8.96874C21.1509 13.6628 20.9541 17.8246 21.4154 21.9056C21.8735 26.0029 23.6044 30.213 23.6044 30.213C24.5238 32.4068 25.9014 34.778 26.7983 35.9395C28.1129 34.2296 31.1342 29.1323 32.0763 22.4864C32.6005 18.7763 32.6231 15.534 31.4197 10.2592ZM26.7789 34.6167C26.1869 33.5037 25.2675 31.3906 25.1803 28.0999C25.1578 24.9382 26.4273 22.2121 26.7983 21.6476C27.1289 22.2121 28.2226 24.5834 28.3533 27.8257C28.442 30.9873 27.3903 33.4876 26.7789 34.6167ZM31.0697 19.2118C31.0245 21.2281 30.7842 23.3574 30.4777 24.6318C30.5874 22.438 30.3245 19.357 29.8212 16.9374C29.3179 14.5339 27.8935 10.5012 26.7563 8.64611C25.7062 10.4205 24.4125 13.9048 23.735 16.9212C23.0543 19.9377 23.0349 23.5994 23.0349 24.6963C22.8543 23.7768 22.4026 20.47 22.5301 17.1632C22.6365 14.4371 23.2753 11.6142 23.6253 10.3237C24.961 6.0168 26.4724 3.25842 26.7563 2.82289C27.0402 3.25842 28.9437 6.66202 29.9309 10.2269C30.9132 13.7918 31.1116 17.2116 31.0697 19.2118Z" fill="#0079C2"/>
<path d="M28.8225 37.1654H19.6618V43.3112C19.6699 43.3112 19.6764 43.2951 19.6844 43.2951C21.8427 41.1336 25.3431 41.1336 27.503 43.2951C29.6613 45.4405 29.6613 48.9409 27.503 51.1024C27.4934 51.1186 27.4837 51.1186 27.474 51.1347C27.4627 51.1347 27.4514 51.1508 27.4417 51.167C25.2883 53.2962 22.4751 54.3608 19.6618 54.3608C16.8357 54.3608 14.0096 53.2962 11.8545 51.1347C8.05411 47.3439 7.60407 41.4562 10.5012 37.1654C10.8915 36.5847 11.3416 36.0362 11.8545 35.5201C14.0096 33.3585 16.8357 32.2939 19.6618 32.2939V17.5181C8.80259 17.5181 0 26.3093 0 37.1654C0 48.0214 8.80259 56.8289 19.6618 56.8289C25.3238 56.8289 30.4243 54.4254 34.0118 50.6024V37.1654H28.8225Z" fill="#0079C2"/>
</svg>
