<svg width="20" height="20" viewBox="0 0 20 20" fill="none" xmlns="http://www.w3.org/2000/svg">
<path d="M19.9952 20V19.9992H20.0001V12.7841C20.0001 9.25439 19.2326 6.5354 15.0647 6.5354C13.061 6.5354 11.7164 7.62398 11.1675 8.656H11.1095V6.86493H7.15771V19.9992H11.2727V13.4956C11.2727 11.7832 11.6005 10.1274 13.7424 10.1274C15.8529 10.1274 15.8844 12.0816 15.8844 13.6054V20H19.9952Z" fill="#BFBFC7"/>
<path d="M0.327881 6.86499H4.44778V19.9993H0.327881V6.86499Z" fill="#BFBFC7"/>
<path d="M2.38617 0C1.06889 0 0 1.05825 0 2.36241C0 3.66658 1.06889 4.74696 2.38617 4.74696C3.70344 4.74696 4.77233 3.66658 4.77233 2.36241C4.7715 1.05825 3.70261 0 2.38617 0V0Z" fill="#BFBFC7"/>
</svg>
