<svg width="67" height="82" viewBox="0 0 67 82" fill="none" xmlns="http://www.w3.org/2000/svg">
<path d="M56.6144 10.2938C50.6872 4.36728 42.5019 0.702988 33.4559 0.702637C24.4092 0.702988 16.2239 4.36728 10.2966 10.2938C4.36937 16.2211 0.705078 24.4066 0.705078 33.4531C0.705078 42.4996 4.36937 50.6848 10.2964 56.612C16.2239 62.539 24.4092 66.2031 33.4554 66.2034C42.5015 66.2031 50.687 62.5384 56.6142 56.612C62.5416 50.6842 66.2053 42.4991 66.2057 33.4531C66.2059 24.4066 62.5417 16.2211 56.6144 10.2938Z" fill="white"/>
<path d="M0 33.4565C0.000351491 14.9774 14.9788 0 33.455 0V0.351491V0.702981C24.4101 0.702981 16.2243 4.36815 10.296 10.2957C4.3685 16.2236 0.703333 24.4098 0.702805 33.4563C0.703333 42.5014 4.3685 50.6867 10.296 56.6144C16.2243 62.5419 24.4101 66.2066 33.455 66.2066C42.5 66.2066 50.6858 62.5416 56.6141 56.6144C62.5418 50.6867 66.2069 42.5012 66.2069 33.4563C66.2069 24.4098 62.5418 16.2236 56.6141 10.2957C50.6858 4.36815 42.5 0.702981 33.455 0.702981V0.351491V0C51.9315 0 66.9099 14.9774 66.9103 33.4565C66.9099 51.9324 51.9315 66.9101 33.455 66.9103C14.9788 66.9101 0.000351491 51.9324 0 33.4565Z" fill="#C5C9CC"/>
<path d="M33.4556 23.9048L33.6816 23.8417C22.4316 27.3331 13.5299 33.3148 13.3477 37.7075C13.1519 42.4094 23.0179 43.5124 35.3782 40.1722C47.738 36.8318 57.9204 30.31 58.116 25.6085C58.2169 23.172 55.6144 21.7024 51.3642 21.3159C56.5591 21.5483 59.8123 23.0618 59.8123 25.7656C59.8123 30.9174 48.0092 38.4395 33.4552 42.5649C18.9011 46.6895 7.09766 45.8558 7.09766 40.7038C7.09818 35.5523 18.9014 28.0296 33.4556 23.9048Z" fill="#A0A4A7"/>
<path d="M12.2622 50.9944L48.8018 15.9165L45.4888 43.4913L39.4475 36.5732L12.2622 50.9944Z" fill="#E63F3F"/>
<path d="M2.35284 76.8621C2.99818 76.8621 3.45371 76.761 3.71926 76.5333C3.98499 76.318 4.12435 75.951 4.12435 75.4451C4.12435 74.4836 3.5168 74.0027 2.28957 74.0027H1.63141V76.8623H2.35284V76.8621ZM2.32736 77.4568H1.63141V80.7339H0.960938V73.4075H2.22613C3.03596 73.4075 3.66882 73.5593 4.14948 73.8757C4.61767 74.1795 4.84544 74.6985 4.84544 75.3943C4.84544 76.2039 4.61767 76.7357 4.14948 77.0264C3.6813 77.3175 3.07392 77.4568 2.32736 77.4568ZM9.42624 80.3547C10.0334 80.3547 10.5649 80.2153 11.0584 79.9245C11.5521 79.6461 11.9317 79.2542 12.21 78.773C12.5011 78.2793 12.6401 77.7356 12.6401 77.128C12.6401 76.5967 12.5264 76.0908 12.2858 75.5844C12.0452 75.0781 11.6784 74.6607 11.1977 74.3315C10.7169 74.0027 10.1347 73.838 9.45137 73.838C8.9707 73.838 8.47704 73.9519 7.97089 74.1925C7.4774 74.4328 7.05965 74.7997 6.73083 75.2934C6.40166 75.7872 6.23716 76.3944 6.23716 77.0776C6.23716 77.6598 6.36387 78.2037 6.62943 78.6974C6.90781 79.1909 7.28742 79.5956 7.78091 79.887C8.27458 80.2025 8.81868 80.3547 9.42624 80.3547ZM9.42624 80.9241C8.74276 80.9241 8.09743 80.7721 7.50288 80.481C6.8955 80.1774 6.41467 79.7345 6.06036 79.1524C5.70606 78.5702 5.51625 77.8744 5.51625 77.0644C5.51625 76.2923 5.70606 75.622 6.08567 75.0398C6.45263 74.4704 6.94612 74.0273 7.56615 73.7108C8.17335 73.3946 8.81869 73.2426 9.47668 73.2426C10.0589 73.2426 10.5777 73.3439 11.0457 73.5465C11.5139 73.7363 11.919 74.0147 12.2605 74.369C12.615 74.7104 12.8807 75.1282 13.0703 75.5964C13.2601 76.09 13.3487 76.583 13.3487 77.115C13.3487 77.8739 13.1842 78.5447 12.8299 79.1268C12.4756 79.7088 11.9948 80.1517 11.4 80.4556C10.8053 80.7721 10.1473 80.9241 9.42624 80.9241ZM18.1065 73.838C17.4736 73.838 16.9044 73.9771 16.4362 74.243C15.9553 74.509 15.601 74.8883 15.348 75.369C15.0822 75.8755 14.9557 76.4447 14.9557 77.0902C14.9557 78.0899 15.2467 78.8872 15.8162 79.4688C16.3856 80.051 17.145 80.3422 18.0813 80.3422C18.891 80.3422 19.6755 80.0512 20.4221 79.4688V80.241C20.0804 80.4563 19.7135 80.6079 19.3212 80.7216C18.9037 80.8482 18.4861 80.899 18.0432 80.899C17.4611 80.899 16.8792 80.7977 16.3098 80.5823C15.7404 80.3673 15.2467 79.9752 14.8418 79.4058C14.4243 78.8491 14.2218 78.0899 14.2218 77.128C14.2218 76.4322 14.3612 75.7869 14.6269 75.1918C14.8798 74.6096 15.3102 74.1417 15.8921 73.7873C16.487 73.4203 17.2335 73.2432 18.1191 73.2432C18.9418 73.2432 19.739 73.4961 20.4855 74.0279L20.4601 74.7491C20.1817 74.5212 19.8653 74.3061 19.4984 74.1163C19.1188 73.9265 18.6632 73.838 18.1065 73.838ZM21.5736 80.7343V73.4078H22.2442V76.8373L25.5468 73.4078H26.4199L22.9528 76.9259L26.5969 80.7346H25.6352L22.244 77.0268V80.7346L21.5736 80.7343ZM31.0765 80.3547C31.6714 80.3547 32.2153 80.2153 32.7088 79.9245C33.1893 79.6461 33.5815 79.2542 33.8599 78.773C34.1383 78.2793 34.2903 77.7356 34.2903 77.128C34.2903 76.5967 34.1636 76.0908 33.9357 75.5844C33.6828 75.0781 33.3285 74.6607 32.8476 74.3315C32.354 74.0027 31.7849 73.838 31.1014 73.838C30.6078 73.838 30.1144 73.9519 29.621 74.1925C29.1146 74.4328 28.6972 74.7997 28.3681 75.2934C28.0392 75.7872 27.8746 76.3944 27.8746 77.0776C27.8746 77.6598 28.0138 78.2037 28.2795 78.6974C28.5452 79.1909 28.9248 79.5956 29.4311 79.887C29.9123 80.2025 30.4691 80.3547 31.0765 80.3547ZM31.0765 80.9241C30.3932 80.9241 29.7477 80.7721 29.1533 80.481C28.5457 80.1774 28.0651 79.7345 27.7106 79.1524C27.3436 78.5702 27.1665 77.8744 27.1665 77.0644C27.1665 76.2923 27.3563 75.622 27.7233 75.0398C28.1029 74.4704 28.5965 74.0273 29.2037 73.7108C29.8238 73.3946 30.4566 73.2426 31.1271 73.2426C31.7092 73.2426 32.2281 73.3439 32.6961 73.5465C33.1643 73.7363 33.5689 74.0147 33.9109 74.369C34.2524 74.7104 34.5181 75.1282 34.7079 75.5964C34.8977 76.09 34.9989 76.583 34.9989 77.115C34.9989 77.8739 34.8218 78.5447 34.4677 79.1268C34.1135 79.7088 33.6452 80.1517 33.0506 80.4556C32.4555 80.7721 31.7977 80.9241 31.0765 80.9241ZM39.7567 73.838C39.1114 73.838 38.5546 73.9771 38.0739 74.243C37.6058 74.509 37.2388 74.8883 36.9861 75.369C36.7328 75.8755 36.6065 76.4447 36.6065 77.0902C36.6065 78.0899 36.8849 78.8872 37.4669 79.4688C38.0358 80.051 38.7824 80.3422 39.7188 80.3422C40.5414 80.3422 41.3261 80.0512 42.0727 79.4688L42.0602 80.241C41.7187 80.4563 41.3518 80.6079 40.9592 80.7216C40.5539 80.8482 40.124 80.899 39.6813 80.899C39.1119 80.899 38.5295 80.7977 37.9476 80.5823C37.3782 80.3673 36.8973 79.9752 36.4926 79.4058C36.0748 78.8491 35.8727 78.0899 35.8727 77.128C35.8727 76.4322 35.9991 75.7869 36.2646 75.1918C36.5307 74.6096 36.9481 74.1417 37.5428 73.7873C38.1247 73.4203 38.8713 73.2432 39.7699 73.2432C40.5924 73.2432 41.3767 73.4961 42.1233 74.0279L42.111 74.7491C41.8326 74.5212 41.5034 74.3061 41.1365 74.1163C40.7695 73.9265 40.3008 73.838 39.7567 73.838ZM46.6276 80.9998L44.0591 75.141L43.5024 80.7339H42.8189L43.8185 73.0913L46.6276 79.6204L49.5382 73.0913L50.4872 80.7339H49.7911L49.2598 75.141L46.6276 80.9998ZM54.9031 80.3547C55.498 80.3547 56.042 80.2153 56.523 79.9245C57.0163 79.6461 57.3959 79.2542 57.6869 78.773C57.9653 78.2793 58.1047 77.7356 58.1047 77.128C58.1047 76.5967 57.9908 76.0908 57.7504 75.5844C57.5098 75.0781 57.1428 74.6607 56.662 74.3315C56.1812 74.0027 55.5993 73.838 54.9158 73.838C54.435 73.838 53.9413 73.9519 53.448 74.1925C52.9416 74.4328 52.5243 74.7997 52.1951 75.2934C51.8663 75.7872 51.7016 76.3944 51.7016 77.0776C51.7016 77.6598 51.8281 78.2037 52.1065 78.6974C52.3722 79.1909 52.7518 79.5956 53.2452 79.887C53.7392 80.2025 54.2833 80.3547 54.9031 80.3547ZM54.9031 80.9241C54.2074 80.9241 53.5743 80.7721 52.9671 80.481C52.3722 80.1774 51.8914 79.7345 51.5244 79.1524C51.1701 78.5702 50.9932 77.8744 50.9932 77.0644C50.9932 76.2923 51.1703 75.622 51.5499 75.0398C51.9295 74.4704 52.4232 74.0273 53.0304 73.7108C53.6379 73.3946 54.2833 73.2426 54.9413 73.2426C55.5232 73.2426 56.0548 73.3439 56.5103 73.5465C56.9785 73.7363 57.3833 74.0147 57.7377 74.369C58.0792 74.7104 58.3449 75.1282 58.5347 75.5964C58.7245 76.09 58.8258 76.583 58.8258 77.115C58.8258 77.8739 58.6486 78.5447 58.2945 79.1268C57.9398 79.709 57.4717 80.1517 56.8645 80.4556C56.2696 80.7721 55.6116 80.9241 54.9031 80.9241ZM63.5835 73.838C62.9382 73.838 62.3815 73.9771 61.9006 74.243C61.4324 74.509 61.0655 74.8883 60.8129 75.369C60.5597 75.8755 60.4207 76.4447 60.4207 77.0902C60.4207 78.0899 60.7117 78.8872 61.2811 79.4688C61.863 80.051 62.6096 80.3422 63.5459 80.3422C64.3556 80.3422 65.1403 80.0512 65.8997 79.4688L65.887 80.241C65.5456 80.4563 65.1786 80.6079 64.7862 80.7216C64.3811 80.8482 63.951 80.899 63.5083 80.899C62.9261 80.899 62.3567 80.7977 61.7746 80.5823C61.2052 80.3673 60.7119 79.9752 60.3068 79.4058C59.9017 78.8491 59.6869 78.0899 59.6869 77.128C59.6869 76.4322 59.8259 75.7869 60.0917 75.1918C60.3577 74.6096 60.7755 74.1417 61.3699 73.7873C61.9518 73.4203 62.6983 73.2432 63.5969 73.2432C64.4194 73.2432 65.2037 73.4961 65.9503 74.0279L65.9252 74.7491C65.6591 74.5212 65.3303 74.3061 64.9633 74.1163C64.5964 73.9265 64.1277 73.838 63.5835 73.838Z" fill="#A0A4A7" stroke="#A0A4A7" stroke-width="0.216" stroke-miterlimit="2.4142"/>
</svg>
