<svg width="52" height="52" viewBox="0 0 52 52" fill="none" xmlns="http://www.w3.org/2000/svg">
<circle cx="26" cy="26" r="26" fill="#E9E9EC"/>
<path fill-rule="evenodd" clip-rule="evenodd" d="M17.009 33.6345H21.4956C21.791 33.6345 22.0297 33.8733 22.0297 34.1686V38.6552C22.0297 38.9505 21.791 39.1893 21.4956 39.1893H17.009C16.7137 39.1893 16.4749 38.9505 16.4749 38.6552V34.1686C16.4749 33.8733 16.7137 33.6345 17.009 33.6345ZM34.8486 27.3696H26.6231C26.3278 27.3696 26.089 27.1308 26.089 26.8355C26.089 26.5402 26.3278 26.3014 26.6231 26.3014H34.8486C35.1439 26.3014 35.3827 26.5402 35.3827 26.8355C35.3827 27.1308 35.1439 27.3696 34.8486 27.3696ZM22.3628 16.4987L18.1652 20.6963C18.1338 20.734 18.0898 20.7654 18.0458 20.7905C17.7882 20.9351 17.4677 20.8534 17.3169 20.5957L16.0476 18.3964C15.9031 18.1451 15.9848 17.8183 16.2424 17.6675C16.4938 17.523 16.8205 17.6047 16.9713 17.8623L17.895 19.4647L21.6087 15.751C21.8161 15.5436 22.1554 15.5436 22.3628 15.751C22.5701 15.9583 22.5701 16.2977 22.3628 16.505V16.4987ZM19.6231 9.75H13.5341C13.2388 9.75 13 9.98878 13 10.2841V41.3886C13 41.684 13.2388 41.9227 13.5341 41.9227H37.8271C38.1224 41.9227 38.3612 41.684 38.3612 41.3886V10.2841C38.3612 9.98878 38.1224 9.75 37.8271 9.75H31.7381V12.6594C31.7381 12.9547 31.4993 13.1935 31.204 13.1935H20.1572C19.8618 13.1935 19.6231 12.9547 19.6231 12.6594V9.75ZM26.089 36.4119C26.089 36.1166 26.3278 35.8778 26.6231 35.8778H34.8486C35.1439 35.8778 35.3827 36.1166 35.3827 36.4119C35.3827 36.7072 35.1439 36.946 34.8486 36.946H26.6231C26.3278 36.946 26.089 36.7072 26.089 36.4119ZM22.3628 25.1137L18.1652 29.3113C18.1338 29.349 18.0898 29.3804 18.0458 29.4055C17.7882 29.5501 17.4677 29.4684 17.3169 29.2107L16.0476 27.0114C15.9031 26.7601 15.9848 26.4333 16.2424 26.2825C16.4938 26.138 16.8205 26.2197 16.9713 26.4773L17.895 28.0797L21.6087 24.366C21.8161 24.1586 22.1554 24.1586 22.3628 24.366C22.5701 24.5733 22.5701 24.9127 22.3628 25.12V25.1137ZM26.6231 18.7546C26.3278 18.7546 26.089 18.5158 26.089 18.2205C26.089 17.9251 26.3278 17.6864 26.6231 17.6864H34.8486C35.1439 17.6864 35.3827 17.9251 35.3827 18.2205C35.3827 18.5158 35.1439 18.7546 34.8486 18.7546H26.6231Z" fill="#0B7572"/>
<path fill-rule="evenodd" clip-rule="evenodd" d="M31.2036 9.7688H20.1567V12.6593H31.2036V9.7688Z" fill="#0B7572"/>
</svg>
