<svg width="182" height="49" viewBox="0 0 182 49" fill="none" xmlns="http://www.w3.org/2000/svg">
<path d="M48.0347 0.533203H0V48.5417H48.0347V0.533203Z" fill="#ED1A3A"/>
<path d="M40.277 5.31491C39.1731 5.31491 38.3371 6.04686 37.9206 6.92647L31.8725 16.8783C31.4531 17.7987 31.1469 18.8327 31.1469 19.5172C31.1469 20.1288 31.2309 20.6692 31.4551 21.1673L37.9977 36.7885H12.5915C11.677 36.7885 10.9222 35.8704 10.9222 35.0229V8.11428C10.7299 4.43565 5.43994 4.43763 5.32344 8.22985L5.43901 36.7885C5.43901 39.8933 7.84063 42.3808 10.9222 42.3808H45.5611L37.1181 20.7885C36.8851 19.9846 36.7812 19.2555 37.3492 18.2973L42.9351 9.21861C43.0137 9.02929 43.1277 8.2288 43.1277 7.9987C43.017 6.35017 41.7245 5.2421 40.277 5.31491ZM26.5627 5.32775C25.2039 5.33685 23.8468 6.27496 23.8468 8.11428V27.3695C23.8468 30.1656 20.0843 29.9355 20.0843 27.3695V8.11428C20.0843 4.43565 14.6397 4.43565 14.6397 8.11428V27.5236C14.6397 31.9625 17.9559 34.9137 21.9142 34.9137C25.9802 34.9137 29.285 31.9625 29.285 27.5236V8.11428C29.285 6.23856 27.9214 5.31865 26.5627 5.32775Z" fill="white"/>
<path d="M57.4451 6.17432V18.8762C57.4451 22.051 57.1218 23.816 54.5354 23.816C54.0519 23.816 53.7286 23.816 53.2451 23.6412V29.1082C54.2121 29.4635 54.8587 29.4635 55.6684 29.4635C62.9383 29.4635 63.2616 23.9937 63.2616 20.816V11.6442H67.4616V29.1082H73.2751V6.17432H57.4451Z" fill="black"/>
<path d="M75.215 6.17432L83.1315 22.7587L80.2247 29.1082H86.5247L95.8946 6.17432H89.5946L86.2014 15.8762L82.1616 6.17432H75.215Z" fill="black"/>
<path d="M97.6716 29.1082H103.488V19.2286L109.465 29.1082H116.895L108.658 17.2888L116.735 6.17432H109.788L103.488 15.8762V6.17432H97.6716V29.1082Z" fill="black"/>
<path d="M126.428 29.8153C134.181 29.8153 137.734 23.8153 137.734 17.6406C137.734 11.6435 134.181 5.64355 126.428 5.64355C118.834 5.64355 115.281 11.6435 115.281 17.6406C115.281 23.8153 118.834 29.8153 126.428 29.8153ZM126.428 24.3454C123.841 24.3454 121.258 22.0503 121.258 17.6406C121.258 13.2309 123.841 11.1134 126.428 11.1134C129.174 11.1134 131.758 13.2309 131.758 17.6406C131.758 22.0503 129.174 24.3454 126.428 24.3454Z" fill="black"/>
<path d="M140.644 6.17473V29.1086H146.298L154.374 15.3494V29.1086H160.031V6.17473H154.374L146.298 19.9368V6.17473H140.644ZM150.498 4.93978C152.921 4.93978 155.344 4.05726 156.477 1.4097L153.084 0C152.598 1.76504 151.144 1.9398 150.498 1.9398C150.014 1.9398 148.398 1.76504 148.074 0L144.684 1.4097C145.651 4.05726 148.238 4.93978 150.498 4.93978Z" fill="black"/>
<path d="M166.17 6.17432V18.8762C166.17 22.051 165.844 23.816 163.26 23.816C162.777 23.816 162.453 23.816 161.967 23.6412V29.1082C162.937 29.4635 163.584 29.4635 164.39 29.4635C171.66 29.4635 171.983 23.9937 171.983 20.816V11.6442H176.183V29.1082H182V6.17432H166.17Z" fill="black"/>
<path d="M53.2923 41.9789H54.1107V37.7236H58.8903V41.9789H59.7088V33.6372H58.8903V37.0537H54.1107V33.6372H53.2923V41.9789Z" fill="black"/>
<path d="M61.7908 41.9789H66.2733V41.309H62.6092V37.642H66.1277V36.9721H62.6092V34.31H66.2733V33.6372H61.7908V41.9789Z" fill="black"/>
<path d="M71.6678 41.9789H72.4776V40.8314H72.8183C75.5154 40.8314 76.6309 39.2353 76.6309 37.5634C76.6309 35.6062 75.1834 34.31 72.8183 34.31H72.4776V33.3081H71.6678V34.31H71.3387C68.9591 34.31 67.5145 35.6062 67.5145 37.5634C67.5145 39.2353 68.63 40.8314 71.3387 40.8314H71.6678V41.9789ZM72.4776 34.9799C75.1834 35.0149 75.7775 36.279 75.7775 37.5634C75.7775 39.5673 74.4465 40.0887 72.4776 40.1586V34.9799ZM71.6678 40.1586C69.6989 40.0887 68.3679 39.5673 68.3679 37.5634C68.3679 36.279 68.9591 35.0149 71.6678 34.9799V40.1586Z" fill="black"/>
<path d="M79.5867 41.9789H80.3731V34.31H82.5925V33.6372H77.3702V34.31H79.5867V41.9789Z" fill="black"/>
<path d="M83.56 41.9789H84.4804L86.6998 38.3149H87.4047V41.9789H88.226V33.6372H86.3008C83.7755 33.6372 83.4115 35.312 83.4115 36.0518C83.4115 37.4615 84.5153 38.3149 85.8144 38.2683L83.56 41.9789ZM87.4047 37.642H86.2221C85.5522 37.642 84.2212 37.5634 84.2212 35.9702C84.2212 34.4236 85.6309 34.31 86.3008 34.31H87.4047V37.642Z" fill="black"/>
<path d="M90.32 41.9789H91.1384V37.7236H95.918V41.9789H96.7365V33.6372H95.918V37.0537H91.1384V33.6372H90.32V41.9789Z" fill="black"/>
<path d="M97.9306 41.9791H98.7519L99.8995 39.2704H103.415L104.566 41.9791H105.384L101.641 33.4219L97.9306 41.9791ZM100.197 38.6121L101.641 35.1986L103.121 38.6121H100.197Z" fill="black"/>
<path d="M106.33 41.9789H107.251L109.47 38.3149H110.175V41.9789H110.994V33.6372H109.071C106.546 33.6372 106.182 35.312 106.182 36.0518C106.182 37.4615 107.286 38.3149 108.582 38.2683L106.33 41.9789ZM110.175 37.642H108.993C108.32 37.642 106.989 37.5634 106.989 35.9702C106.989 34.4236 108.401 34.31 109.071 34.31H110.175V37.642Z" fill="black"/>
<path d="M115.855 41.9789H116.674V37.9391L120.416 41.9789H121.485L117.445 37.677L121.418 33.6372H120.416L116.674 37.5285V33.6372H115.855V41.9789Z" fill="black"/>
<path d="M126.765 42.2413C129.247 42.2413 131.283 40.4558 131.283 37.8257C131.283 35.1986 129.247 33.4219 126.765 33.4219C124.319 33.4219 122.283 35.1986 122.283 37.8257C122.283 40.4558 124.319 42.2413 126.765 42.2413ZM126.765 41.5364C124.729 41.5364 123.136 40.0102 123.136 37.8257C123.136 35.6413 124.729 34.083 126.765 34.083C128.804 34.083 130.429 35.6413 130.429 37.8257C130.429 40.0102 128.804 41.5364 126.765 41.5364Z" fill="black"/>
<path d="M132.41 41.9789H133.197L133.969 35.8217L137.041 42.3547L140.079 35.8217L140.901 41.9789H141.637L140.49 33.3081L137.041 40.7615L133.558 33.3081L132.41 41.9789Z" fill="black"/>
<path d="M143.175 33.6372V41.9789H143.993V34.31H148.773V41.9789H149.591V33.6372H143.175Z" fill="black"/>
<path d="M150.789 41.9791H151.607L152.755 39.2704H156.273L157.421 41.9791H158.239L154.497 33.4219L150.789 41.9791ZM153.052 38.6121L154.497 35.1986L155.976 38.6121H153.052Z" fill="black"/>
<path d="M159.401 41.9789H160.22V37.7236H164.999V41.9789H165.821V33.6372H164.999V37.0537H160.22V33.6372H159.401V41.9789Z" fill="black"/>
<path d="M167.9 33.6372V42.3547L173.615 35.379V41.9789H174.422V33.3081L168.722 40.2372V33.6372H167.9Z" fill="black"/>
<path d="M176.265 41.9789H177.185L179.405 38.3149H180.11V41.9789H180.931V33.6372H179.009C176.481 33.6372 176.116 35.312 176.116 36.0518C176.116 37.4615 177.22 38.3149 178.519 38.2683L176.265 41.9789ZM180.11 37.642H178.927C178.257 37.642 176.926 37.5634 176.926 35.9702C176.926 34.4236 178.336 34.31 179.009 34.31H180.11V37.642Z" fill="black"/>
</svg>
