<svg width="24" height="33" viewBox="0 0 24 33" fill="none" xmlns="http://www.w3.org/2000/svg">
<path d="M11.3311 6.90864L7.8664 0.899195C6.98512 -0.628776 5.45842 0.253288 5.45842 0.253288L3.32131 1.48907L8.5489 10.5548L10.686 9.31902C12.2124 8.43696 11.3311 6.90864 11.3311 6.90864ZM20.2115 32.5222L14.9839 23.4561C13.6931 24.2014 12.5097 22.8236 11.4214 21.3458C10.7032 20.3627 10.0495 19.3414 9.46691 18.3349C8.88775 17.326 8.33124 16.249 7.83996 15.1343C7.10597 13.4519 6.55221 11.7088 7.79602 10.9897L2.56843 1.92426C0.726232 2.9892 -2.93826 8.65971 4.34712 21.2943L4.34747 21.295C11.6552 33.968 18.37 33.5875 20.2115 32.5222ZM23.7469 28.4405L20.2822 22.4317C19.4006 20.9034 17.8742 21.7858 17.8742 21.7858L15.7368 23.0213L20.9647 32.0873L23.1018 30.8519C24.6282 29.9692 23.7469 28.4405 23.7469 28.4405Z" fill="#0B7572"/>
</svg>
