<svg width="32" height="32" viewBox="0 0 32 32" fill="none" xmlns="http://www.w3.org/2000/svg">
<path d="M30.8674 18.6714C30.8395 18.6205 30.857 18.7278 30.8674 18.6714C31.0324 17.77 31.1191 16.8476 31.1191 15.9255C31.1191 13.8807 30.7199 11.8972 29.9309 10.0296C29.1695 8.22589 28.0805 6.60597 26.692 5.21511C25.3057 3.82406 23.6885 2.73256 21.8898 1.96959C20.0275 1.1796 18.0486 0.779222 16.009 0.779222C15.0477 0.779222 14.0848 0.869675 13.1477 1.05019C13.1457 1.05058 13.1406 1.05117 13.1406 1.05117C11.8549 0.365921 10.4092 0 8.94551 0C6.55605 0 4.30957 0.932717 2.62012 2.62684C0.930859 4.32038 0 6.57249 0 8.96752C0 10.4921 0.391406 11.9908 1.12539 13.3149C0.976563 14.173 0.897852 15.05 0.897852 15.9255C0.897852 17.9707 1.29727 19.954 2.08633 21.8218C2.84648 23.6263 3.93594 25.245 5.32324 26.6361C6.71172 28.0269 8.32656 29.1202 10.1271 29.8812C11.9896 30.6728 13.9691 31.0734 16.0088 31.0734C16.8967 31.0734 17.7865 30.9921 18.6553 30.8376C19.9936 31.5967 21.5088 32 23.0561 32C25.4449 32 27.6904 31.069 29.3801 29.3741C31.0699 27.6816 32 25.4291 32 23.034C32 21.5044 31.6066 20.0008 30.8674 18.6714ZM16.0691 25.202C10.701 25.202 8.29922 22.5565 8.29922 20.5736C8.29922 19.5569 9.04824 18.8439 10.0805 18.8439C12.3779 18.8439 11.783 22.1505 16.0691 22.1505C18.2635 22.1505 19.475 20.9562 19.475 19.7341C19.475 18.9989 19.1133 18.1841 17.6684 17.8272L12.8938 16.6323C9.04824 15.6657 8.35059 13.5818 8.35059 11.6229C8.35059 7.55591 12.1707 6.02899 15.758 6.02899C19.0627 6.02899 22.9582 7.85977 22.9582 10.2996C22.9582 11.3451 22.0551 11.953 21.0232 11.953C19.0627 11.953 19.4232 9.23281 15.474 9.23281C13.5145 9.23281 12.4289 10.1225 12.4289 11.3952C12.4289 12.6659 13.9768 13.0717 15.3205 13.3785L18.8547 14.165C22.726 15.0296 23.7074 17.2952 23.7074 19.4293C23.7078 22.7341 21.177 25.202 16.0691 25.202Z" fill="#0B7572"/>
</svg>
