<svg width="32" height="32" viewBox="0 0 32 32" fill="none" xmlns="http://www.w3.org/2000/svg">
<path fill-rule="evenodd" clip-rule="evenodd" d="M16 0C7.15633 0 0 7.15235 0 16C0 19.3367 1.01754 22.4231 2.825 25.075C2.89228 25.1747 2.93621 25.2883 2.95352 25.4073C2.97083 25.5264 2.96108 25.6478 2.925 25.7625L1.3 31.2L6.625 29.3625C6.73882 29.3246 6.85971 29.3128 6.97872 29.3279C7.09773 29.3431 7.2118 29.3848 7.3125 29.45C9.80672 31.0684 12.7926 32 16 32C24.8479 32 32 24.8478 32 16C32 7.15211 24.8479 0 16 0ZM9.45 6.975L12.3625 11.7875L11.15 12.9875C11.0266 13.1121 10.9475 13.2737 10.9249 13.4476C10.9023 13.6215 10.9375 13.798 11.025 13.95C12.8753 17.1543 15.0677 19.6471 18.1375 21C18.2846 21.0653 18.448 21.0848 18.6063 21.0558C18.7647 21.0268 18.9106 20.9508 19.025 20.8375L20.3125 19.55L25.0125 22.4875C24.4921 23.6588 23.8136 24.3562 23.0375 24.7625C22.1385 25.2332 21.0405 25.3223 19.7875 25.0625C17.2815 24.5429 14.2543 22.5733 11.7875 20.05C9.32065 17.5268 7.41166 14.4585 6.925 11.9625C6.68167 10.7145 6.78917 9.63968 7.25 8.78752C7.64679 8.0538 8.32079 7.42564 9.45 6.975Z" fill="#0B7572"/>
</svg>
