<svg width="29" height="17" viewBox="0 0 29 17" fill="none" xmlns="http://www.w3.org/2000/svg">
<path d="M24.0648 9.74829C23.5959 9.15329 23.7301 8.88857 24.0648 8.35671C24.0708 8.35064 27.9413 2.97621 28.34 1.15357L28.3424 1.15236C28.5406 0.488143 28.3424 0 27.3842 0H24.2134C23.4062 0 23.034 0.418929 22.8347 0.887643C22.8347 0.887643 21.2203 4.77093 18.9364 7.28814C18.1993 8.0155 17.8586 8.24864 17.4562 8.24864C17.258 8.24864 16.9499 8.0155 16.9499 7.35129V1.15236C16.9499 0.355786 16.7239 0 16.0557 0H11.0699C10.5636 0 10.2627 0.371572 10.2627 0.717643C10.2627 1.47293 11.4046 1.64657 11.5231 3.77157V8.38221C11.5231 9.3925 11.3406 9.57829 10.9358 9.57829C9.85793 9.57829 7.24179 5.67921 5.69145 1.21671C5.37848 0.350928 5.07276 0.0012142 4.25952 0.0012142H1.08754C0.182465 0.0012142 0 0.420143 0 0.888857C0 1.717 1.07787 5.83464 5.01234 11.2746C7.63451 14.9879 11.3273 17 14.6866 17C16.7058 17 16.9523 16.5531 16.9523 15.7845C16.9523 12.2364 16.7698 11.9012 17.7812 11.9012C18.2501 11.9012 19.0573 12.1344 20.9424 13.9254C23.0969 16.0492 23.4509 17 24.6569 17H27.8277C28.7315 17 29.1895 16.5531 28.9261 15.6716C28.3231 13.8174 24.2485 10.0033 24.0648 9.74829Z" fill="#BFBFC7"/>
</svg>
